<?xml version="1.0" standalone="no"?>
<!DOCTYPE svg PUBLIC "-//W3C//DTD SVG 20010904//EN"
 "http://www.w3.org/TR/2001/REC-SVG-20010904/DTD/svg10.dtd">
<svg version="1.0" xmlns="http://www.w3.org/2000/svg"
 width="128.000000pt" height="128.000000pt" viewBox="0 0 128.000000 128.000000"
 preserveAspectRatio="xMidYMid meet">

<g transform="translate(0.000000,128.000000) scale(0.100000,-0.100000)"
fill="#000000" stroke="none">
<path d="M541 1136 c-46 -26 -50 -47 -51 -268 l0 -208 29 -32 29 -33 206 -3
c305 -5 299 -11 294 294 l-3 206 -33 29 -32 29 -208 0 c-153 -1 -213 -4 -231
-14z m440 -45 c24 -19 24 -21 24 -220 0 -179 -2 -202 -18 -218 -15 -16 -41
-18 -212 -21 l-195 -3 -25 25 c-25 25 -25 25 -25 217 0 258 -19 239 236 239
174 0 194 -2 215 -19z"/>
<path d="M281 876 c-46 -26 -50 -47 -51 -268 l0 -208 29 -32 29 -33 206 -3
c171 -3 210 -1 235 13 41 21 61 63 61 130 0 47 -3 55 -19 55 -16 0 -19 -9 -23
-59 -7 -94 1 -91 -239 -91 -203 0 -208 0 -223 22 -13 18 -16 57 -16 213 0 187
1 192 23 213 18 17 36 22 75 22 45 0 52 3 52 20 0 18 -7 20 -57 20 -32 -1 -69
-7 -82 -14z"/>
<path d="M480 191 c0 -23 5 -41 10 -41 6 0 10 6 10 14 0 7 9 16 21 19 31 8 21
41 -14 45 -25 3 -27 1 -27 -37z m40 14 c0 -8 -4 -15 -10 -15 -5 0 -10 7 -10
15 0 8 5 15 10 15 6 0 10 -7 10 -15z"/>
<path d="M561 188 c1 -24 3 -35 6 -25 2 9 13 17 23 17 10 0 20 6 22 13 9 22
-3 37 -28 37 -22 0 -24 -4 -23 -42z m31 17 c0 -5 -5 -11 -11 -13 -6 -2 -11 4
-11 13 0 9 5 15 11 13 6 -2 11 -8 11 -13z"/>
<path d="M634 216 c-12 -31 0 -61 25 -61 13 0 26 7 29 15 4 12 2 13 -9 3 -17
-17 -26 -16 -33 2 -9 26 4 46 26 39 14 -4 18 -2 14 5 -10 16 -46 14 -52 -3z"/>
<path d="M712 190 c12 -47 25 -51 35 -13 l6 28 10 -28 c12 -38 23 -34 35 13
10 42 0 56 -13 18 l-8 -23 -4 23 c-2 12 -11 22 -18 22 -7 0 -16 -10 -18 -22
l-4 -23 -8 23 c-13 38 -23 24 -13 -18z"/>
</g>
</svg>
